<svg width="91" height="91" viewBox="0 0 91 91" fill="none" xmlns="http://www.w3.org/2000/svg">
<path d="M89.7101 46.8771L48.815 1.43814C47.0929 -0.479381 43.7849 -0.479381 42.0628 1.43814L1.16771 46.8771C0.579075 47.5296 0.1927 48.339 0.055563 49.207C-0.0815736 50.075 0.0364364 50.9642 0.395245 51.7663C1.12227 53.4067 2.74898 54.4609 4.54382 54.4609H13.6316V86.2681C13.6316 87.4733 14.1103 88.629 14.9625 89.4812C15.8146 90.3333 16.9704 90.812 18.1755 90.812H31.8072C33.0123 90.812 34.1681 90.3333 35.0202 89.4812C35.8724 88.629 36.3511 87.4733 36.3511 86.2681V68.0926H54.5267V86.2681C54.5267 87.4733 55.0054 88.629 55.8576 89.4812C56.7097 90.3333 57.8655 90.812 59.0706 90.812H72.7023C73.9074 90.812 75.0632 90.3333 75.9153 89.4812C76.7674 88.629 77.2462 87.4733 77.2462 86.2681V54.4609H86.334C87.214 54.4646 88.076 54.2122 88.8151 53.7345C89.5541 53.2568 90.1382 52.5743 90.4961 51.7704C90.854 50.9665 90.9703 50.0757 90.8307 49.2069C90.6911 48.338 90.3018 47.5285 89.7101 46.8771Z" fill="#FFAC1B"/>
</svg>
